<svg xmlns="http://www.w3.org/2000/svg" style="display: none;">

    <symbol id="docker" viewBox="0 0 24 24">
        <title>Docker</title>
        <path d="M13.983 11.078h2.119a.186.186 0 00.186-.185V9.006a.186.186 0 00-.186-.186h-2.119a.185.185 0 00-.185.185v1.888c0 .102.083.185.185.185m-2.954-5.43h2.118a.186.186 0 00.186-.186V3.574a.186.186 0 00-.186-.185h-2.118a.185.185 0 00-.185.185v1.888c0 .102.082.185.185.185m0 2.716h2.118a.187.187 0 00.186-.186V6.29a.186.186 0 00-.186-.185h-2.118a.185.185 0 00-.185.185v1.887c0 .102.082.185.185.186m-2.93 0h2.12a.186.186 0 00.184-.186V6.29a.185.185 0 00-.185-.185H8.1a.185.185 0 00-.185.185v1.887c0 .102.083.185.185.186m-2.964 0h2.119a.186.186 0 00.185-.186V6.29a.185.185 0 00-.185-.185H5.136a.186.186 0 00-.186.185v1.887c0 .102.084.185.186.186m5.893 2.715h2.118a.186.186 0 00.186-.185V9.006a.186.186 0 00-.186-.186h-2.118a.185.185 0 00-.185.185v1.888c0 .102.082.185.185.185m-2.93 0h2.12a.185.185 0 00.184-.185V9.006a.185.185 0 00-.184-.186h-2.12a.185.185 0 00-.184.185v1.888c0 .102.083.185.185.185m-2.964 0h2.119a.185.185 0 00.185-.185V9.006a.185.185 0 00-.184-.186h-2.12a.186.186 0 00-.186.186v1.887c0 .102.084.185.186.185m-2.92 0h2.12a.185.185 0 00.184-.185V9.006a.185.185 0 00-.184-.186h-2.12a.185.185 0 00-.184.185v1.888c0 .102.082.185.185.185M23.763 9.89c-.065-.051-.672-.51-1.954-.51-.338.001-.676.03-1.01.087-.248-1.7-1.653-2.53-1.716-2.566l-.344-.199-.226.327c-.284.438-.49.922-.612 1.43-.23.97-.09 1.882.403 2.661-.595.332-1.55.413-1.744.42H.751a.751.751 0 00-.75.748 11.376 11.376 0 00.692 4.062c.545 1.428 1.355 2.48 2.41 3.124 1.18.723 3.1 1.137 5.275 1.137.983.003 1.963-.086 2.93-.266a12.248 12.248 0 003.823-1.389c.98-.567 1.86-1.288 2.61-2.136 1.252-1.418 1.998-2.997 2.553-4.4h.221c1.372 0 2.215-.549 2.68-1.009.309-.293.55-.65.707-1.046l.098-.288Z"/>
    </symbol>

    <symbol id="git" viewBox="0 0 24 24">
        <title>Git</title>
        <path d="M23.546 10.93L13.067.452c-.604-.603-1.582-.603-2.188 0L8.708 2.627l2.76 2.76c.645-.215 1.379-.07 1.889.441.516.515.658 1.258.438 1.9l2.658 2.66c.645-.223 1.387-.078 1.9.435.721.72.721 1.884 0 2.604-.719.719-1.881.719-2.6 0-.539-.541-.674-1.337-.404-1.996L12.86 8.955v6.525c.176.086.342.203.488.348.713.721.713 1.883 0 2.6-.719.721-1.889.721-2.609 0-.719-.719-.719-1.879 0-2.598.182-.18.387-.316.605-.406V8.835c-.217-.091-.424-.222-.6-.401-.545-.545-.676-1.342-.396-2.009L7.636 3.7.45 10.881c-.6.605-.6 1.584 0 2.189l10.48 10.477c.604.604 1.582.604 2.186 0l10.43-10.43c.605-.603.605-1.582 0-2.187"/>
    </symbol>
  
    <symbol id="k3s" viewBox="0 0 24 24">
        <title>K3s</title>
        <path d="M21.46 2.172H2.54A2.548 2.548 0 0 0 0 4.712v14.575a2.548 2.548 0 0 0 2.54 2.54h18.92a2.548 2.548 0 0 0 2.54-2.54V4.713a2.548 2.548 0 0 0-2.54-2.54ZM10.14 16.465 5.524 19.15a1.235 1.235 0 1 1-1.242-2.137L8.9 14.33a1.235 1.235 0 1 1 1.241 2.136zm1.817-4.088h-.006a1.235 1.235 0 0 1-1.23-1.24l.023-5.32a1.236 1.236 0 0 1 1.236-1.23h.005a1.235 1.235 0 0 1 1.23 1.241l-.023 5.32a1.236 1.236 0 0 1-1.235 1.23zm8.17 6.32a1.235 1.235 0 0 1-1.688.453l-4.624-2.67a1.235 1.235 0 1 1 1.235-2.14l4.624 2.67a1.235 1.235 0 0 1 .452 1.688z"/>
    </symbol>

    <symbol id="kubernetes" viewBox="0 0 24 24">
        <title>Kubernetes</title>
        <path d="M10.204 14.35l.007.01-.999 2.413a5.171 5.171 0 0 1-2.075-2.597l2.578-.437.004.005a.44.44 0 0 1 .484.606zm-.833-2.129a.44.44 0 0 0 .173-.756l.002-.011L7.585 9.7a5.143 5.143 0 0 0-.73 3.255l2.514-.725.002-.009zm1.145-1.98a.44.44 0 0 0 .699-.337l.01-.005.15-2.62a5.144 5.144 0 0 0-3.01 1.442l2.147 1.523.004-.002zm.76 2.75l.723.349.722-.347.18-.78-.5-.623h-.804l-.5.623.179.779zm1.5-3.095a.44.44 0 0 0 .7.336l.008.003 2.134-1.513a5.188 5.188 0 0 0-2.992-1.442l.148 2.615.002.001zm10.876 5.97l-5.773 7.181a1.6 1.6 0 0 1-1.248.594l-9.261.003a1.6 1.6 0 0 1-1.247-.596l-5.776-7.18a1.583 1.583 0 0 1-.307-1.34L2.1 5.573c.108-.47.425-.864.863-1.073L11.305.513a1.606 1.606 0 0 1 1.385 0l8.345 3.985c.438.209.755.604.863 1.073l2.062 8.955c.108.47-.005.963-.308 1.34zm-3.289-2.057c-.042-.01-.103-.026-.145-.034-.174-.033-.315-.025-.479-.038-.35-.037-.638-.067-.895-.148-.105-.04-.18-.165-.216-.216l-.201-.059a6.45 6.45 0 0 0-.105-2.332 6.465 6.465 0 0 0-.936-2.163c.052-.047.15-.133.177-.159.008-.09.001-.183.094-.282.197-.185.444-.338.743-.522.142-.084.273-.137.415-.242.032-.024.076-.062.11-.089.24-.191.295-.52.123-.736-.172-.216-.506-.236-.745-.045-.034.027-.08.062-.111.088-.134.116-.217.23-.33.35-.246.25-.45.458-.673.609-.097.056-.239.037-.303.033l-.19.135a6.545 6.545 0 0 0-4.146-2.003l-.012-.223c-.065-.062-.143-.115-.163-.25-.022-.268.015-.557.057-.905.023-.163.061-.298.068-.475.001-.04-.001-.099-.001-.142 0-.306-.224-.555-.5-.555-.275 0-.499.249-.499.555l.001.014c0 .041-.002.092 0 .128.006.177.044.312.067.475.042.348.078.637.056.906a.545.545 0 0 1-.162.258l-.012.211a6.424 6.424 0 0 0-4.166 2.003 8.373 8.373 0 0 1-.18-.128c-.09.012-.18.04-.297-.029-.223-.15-.427-.358-.673-.608-.113-.12-.195-.234-.329-.349-.03-.026-.077-.062-.111-.088a.594.594 0 0 0-.348-.132.481.481 0 0 0-.398.176c-.172.216-.117.546.123.737l.007.005.104.083c.142.105.272.159.414.242.299.185.546.338.743.522.076.082.09.226.1.288l.16.143a6.462 6.462 0 0 0-1.02 4.506l-.208.06c-.055.072-.133.184-.215.217-.257.081-.546.11-.895.147-.164.014-.305.006-.48.039-.037.007-.09.02-.133.03l-.004.002-.007.002c-.295.071-.484.342-.423.608.061.267.349.429.645.365l.007-.001.01-.003.129-.029c.17-.046.294-.113.448-.172.33-.118.604-.217.87-.256.112-.009.23.069.288.101l.217-.037a6.5 6.5 0 0 0 2.88 3.596l-.09.218c.033.084.069.199.044.282-.097.252-.263.517-.452.813-.091.136-.185.242-.268.399-.02.037-.045.095-.064.134-.128.275-.034.591.213.71.248.12.556-.007.69-.282v-.002c.02-.039.046-.09.062-.127.07-.162.094-.301.144-.458.132-.332.205-.68.387-.897.05-.06.13-.082.215-.105l.113-.205a6.453 6.453 0 0 0 4.609.012l.106.192c.086.028.18.042.256.155.136.232.229.507.342.84.05.156.074.295.145.457.016.037.043.09.062.129.133.276.442.402.69.282.247-.118.341-.435.213-.71-.02-.039-.045-.096-.065-.134-.083-.156-.177-.261-.268-.398-.19-.296-.346-.541-.443-.793-.04-.13.007-.21.038-.294-.018-.022-.059-.144-.083-.202a6.499 6.499 0 0 0 2.88-3.622c.064.01.176.03.213.038.075-.05.144-.114.28-.104.266.039.54.138.87.256.154.06.277.128.448.173.036.01.088.019.13.028l.009.003.007.001c.297.064.584-.098.645-.365.06-.266-.128-.537-.423-.608zM16.4 9.701l-1.95 1.746v.005a.44.44 0 0 0 .173.757l.003.01 2.526.728a5.199 5.199 0 0 0-.108-1.674A5.208 5.208 0 0 0 16.4 9.7zm-4.013 5.325a.437.437 0 0 0-.404-.232.44.44 0 0 0-.372.233h-.002l-1.268 2.292a5.164 5.164 0 0 0 3.326.003l-1.27-2.296h-.01zm1.888-1.293a.44.44 0 0 0-.27.036.44.44 0 0 0-.214.572l-.003.004 1.01 2.438a5.15 5.15 0 0 0 2.081-2.615l-2.6-.44-.004.005z"/>
    </symbol>

    <symbol id="grafana" viewBox="0 0 24 24">
        <title>Grafana</title>
        <path d="M23.02 10.59a8.578 8.578 0 0 0-.862-3.034 8.911 8.911 0 0 0-1.789-2.445c.337-1.342-.413-2.505-.413-2.505-1.292-.08-2.113.4-2.416.62-.052-.02-.102-.044-.154-.064-.22-.089-.446-.172-.677-.247-.231-.073-.47-.14-.711-.197a9.867 9.867 0 0 0-.875-.161C14.557.753 12.94 0 12.94 0c-1.804 1.145-2.147 2.744-2.147 2.744l-.018.093c-.098.029-.2.057-.298.088-.138.042-.275.094-.413.143-.138.055-.275.107-.41.166a8.869 8.869 0 0 0-1.557.87l-.063-.029c-2.497-.955-4.716.195-4.716.195-.203 2.658.996 4.33 1.235 4.636a11.608 11.608 0 0 0-.607 2.635C1.636 12.677.953 15.014.953 15.014c1.926 2.214 4.171 2.351 4.171 2.351.003-.002.006-.002.006-.005.285.509.615.994.986 1.446.156.19.32.371.488.548-.704 2.009.099 3.68.099 3.68 2.144.08 3.553-.937 3.849-1.173a9.784 9.784 0 0 0 3.164.501h.08l.055-.003.107-.002.103-.005.003.002c1.01 1.44 2.788 1.646 2.788 1.646 1.264-1.332 1.337-2.653 1.337-2.94v-.058c0-.02-.003-.039-.003-.06.265-.187.52-.387.758-.6a7.875 7.875 0 0 0 1.415-1.7c1.43.083 2.437-.885 2.437-.885-.236-1.49-1.085-2.216-1.264-2.354l-.018-.013-.016-.013a.217.217 0 0 1-.031-.02c.008-.092.016-.18.02-.27.011-.162.016-.323.016-.48v-.253l-.005-.098-.008-.135a1.891 1.891 0 0 0-.01-.13c-.003-.042-.008-.083-.013-.125l-.016-.124-.018-.122a6.215 6.215 0 0 0-2.032-3.73 6.015 6.015 0 0 0-3.222-1.46 6.292 6.292 0 0 0-.85-.048l-.107.002h-.063l-.044.003-.104.008a4.777 4.777 0 0 0-3.335 1.695c-.332.4-.592.84-.768 1.297a4.594 4.594 0 0 0-.312 1.817l.003.091c.005.055.007.11.013.164a3.615 3.615 0 0 0 .698 1.82 3.53 3.53 0 0 0 1.827 1.282c.33.098.66.14.971.137.039 0 .078 0 .114-.002l.063-.003c.02 0 .041-.003.062-.003.034-.002.065-.007.099-.01.007 0 .018-.003.028-.003l.031-.005.06-.008a1.18 1.18 0 0 0 .112-.02c.036-.008.072-.013.109-.024a2.634 2.634 0 0 0 .914-.415c.028-.02.056-.041.085-.065a.248.248 0 0 0 .039-.35.244.244 0 0 0-.309-.06l-.078.042c-.09.044-.184.083-.283.116a2.476 2.476 0 0 1-.475.096c-.028.003-.054.006-.083.006l-.083.002c-.026 0-.054 0-.08-.002l-.102-.006h-.012l-.024.006c-.016-.003-.031-.003-.044-.006-.031-.002-.06-.007-.091-.01a2.59 2.59 0 0 1-.724-.213 2.557 2.557 0 0 1-.667-.438 2.52 2.52 0 0 1-.805-1.475 2.306 2.306 0 0 1-.029-.444l.006-.122v-.023l.002-.031c.003-.021.003-.04.005-.06a3.163 3.163 0 0 1 1.352-2.29 3.12 3.12 0 0 1 .937-.43 2.946 2.946 0 0 1 .776-.101h.06l.07.002.045.003h.026l.07.005a4.041 4.041 0 0 1 1.635.49 3.94 3.94 0 0 1 1.602 1.662 3.77 3.77 0 0 1 .397 1.414l.005.076.003.075c.002.026.002.05.002.075 0 .024.003.052 0 .07v.065l-.002.073-.008.174a6.195 6.195 0 0 1-.08.639 5.1 5.1 0 0 1-.267.927 5.31 5.31 0 0 1-.624 1.13 5.052 5.052 0 0 1-3.237 2.014 4.82 4.82 0 0 1-.649.066l-.039.003h-.287a6.607 6.607 0 0 1-1.716-.265 6.776 6.776 0 0 1-3.4-2.274 6.75 6.75 0 0 1-.746-1.15 6.616 6.616 0 0 1-.714-2.596l-.005-.083-.002-.02v-.056l-.003-.073v-.096l-.003-.104v-.07l.003-.163c.008-.22.026-.45.054-.678a8.707 8.707 0 0 1 .28-1.355c.128-.444.286-.872.473-1.277a7.04 7.04 0 0 1 1.456-2.1 5.925 5.925 0 0 1 .953-.763c.169-.111.343-.213.524-.306.089-.05.182-.091.273-.135.047-.02.093-.042.138-.062a7.177 7.177 0 0 1 .714-.267l.145-.045c.049-.015.098-.026.148-.041.098-.029.197-.052.296-.076.049-.013.1-.02.15-.033l.15-.032.151-.028.076-.013.075-.01.153-.024c.057-.01.114-.013.171-.023l.169-.021c.036-.003.073-.008.106-.01l.073-.008.036-.003.042-.002c.057-.003.114-.008.171-.01l.086-.006h.023l.037-.003.145-.007a7.999 7.999 0 0 1 1.708.125 7.917 7.917 0 0 1 2.048.68 8.253 8.253 0 0 1 1.672 1.09l.09.077.089.078c.06.052.114.107.171.159.057.052.112.106.166.16.052.055.107.107.159.164a8.671 8.671 0 0 1 1.41 1.978c.012.026.028.052.04.078l.04.078.075.156c.023.051.05.1.07.153l.065.15a8.848 8.848 0 0 1 .45 1.34.19.19 0 0 0 .201.142.186.186 0 0 0 .172-.184c.01-.246.002-.532-.024-.856z"/>
    </symbol>

    <symbol id="prometheus" viewBox="0 0 24 24">
        <title>Prometheus</title>
        <path d="M12 0C5.373 0 0 5.372 0 12c0 6.627 5.373 12 12 12s12-5.373 12-12c0-6.628-5.373-12-12-12zm0 22.46c-1.885 0-3.414-1.26-3.414-2.814h6.828c0 1.553-1.528 2.813-3.414 2.813zm5.64-3.745H6.36v-2.046h11.28v2.046zm-.04-3.098H6.391c-.037-.043-.075-.086-.111-.13-1.155-1.401-1.427-2.133-1.69-2.879-.005-.025 1.4.287 2.395.511 0 0 .513.119 1.262.255-.72-.843-1.147-1.915-1.147-3.01 0-2.406 1.845-4.508 1.18-6.207.648.053 1.34 1.367 1.387 3.422.689-.951.977-2.69.977-3.755 0-1.103.727-2.385 1.454-2.429-.648 1.069.168 1.984.894 4.256.272.854.237 2.29.447 3.201.07-1.892.395-4.652 1.595-5.605-.529 1.2.079 2.702.494 3.424.671 1.164 1.078 2.047 1.078 3.716a4.642 4.642 0 01-1.11 2.996c.792-.149 1.34-.283 1.34-.283l2.573-.502s-.374 1.538-1.81 3.019z"/>
    </symbol>

    <symbol id="gcloud" viewBox="0 0 24 24">
        <title>Google Cloud</title>
        <path d="M12.19 2.38a9.344 9.344 0 0 0-9.234 6.893c.053-.02-.055.013 0 0-3.875 2.551-3.922 8.11-.247 10.941l.006-.007-.007.03a6.717 6.717 0 0 0 4.077 1.356h5.173l.03.03h5.192c6.687.053 9.376-8.605 3.835-12.35a9.365 9.365 0 0 0-2.821-4.552l-.043.043.006-.05A9.344 9.344 0 0 0 12.19 2.38zm-.358 4.146c1.244-.04 2.518.368 3.486 1.15a5.186 5.186 0 0 1 1.862 4.078v.518c3.53-.07 3.53 5.262 0 5.193h-5.193l-.008.009v-.04H6.785a2.59 2.59 0 0 1-1.067-.23h.001a2.597 2.597 0 1 1 3.437-3.437l3.013-3.012A6.747 6.747 0 0 0 8.11 8.24c.018-.01.04-.026.054-.023a5.186 5.186 0 0 1 3.67-1.69z"/>
    </symbol>  

    <symbol id="nginx" viewBox="0 0 24 24">
        <title>NGINX</title>
        <path d="M12 0L1.605 6v12L12 24l10.395-6V6L12 0zm6 16.59c0 .705-.646 1.29-1.529 1.29-.631 0-1.351-.255-1.801-.81l-6-7.141v6.66c0 .721-.57 1.29-1.274 1.29H7.32c-.721 0-1.29-.6-1.29-1.29V7.41c0-.705.63-1.29 1.5-1.29.646 0 1.38.255 1.83.81l5.97 7.141V7.41c0-.721.6-1.29 1.29-1.29h.075c.72 0 1.29.6 1.29 1.29v9.18H18z"/>
    </symbol>

    <symbol id="html5" viewBox="0 0 24 24">
        <title>HTML5</title>
        <path d="M1.5 0h21l-1.91 21.563L11.977 24l-8.564-2.438L1.5 0zm7.031 9.75l-.232-2.718 10.059.003.23-2.622L5.412 4.41l.698 8.01h9.126l-.326 3.426-2.91.804-2.955-.81-.188-2.11H6.248l.33 4.171L12 19.351l5.379-1.443.744-8.157H8.531z"/>
    </symbol>

    <symbol id="python" viewBox="0 0 24 24">
        <title>Python</title>
        <path d="M14.25.18l.9.2.73.26.59.3.45.32.34.34.25.34.16.33.1.3.04.26.02.2-.01.13V8.5l-.05.63-.13.55-.21.46-.26.38-.3.31-.33.25-.35.19-.35.14-.33.1-.3.07-.26.04-.21.02H8.77l-.69.05-.59.14-.5.22-.41.27-.33.32-.27.35-.2.36-.15.37-.1.35-.07.32-.04.27-.02.21v3.06H3.17l-.21-.03-.28-.07-.32-.12-.35-.18-.36-.26-.36-.36-.35-.46-.32-.59-.28-.73-.21-.88-.14-1.05-.05-1.23.06-1.22.16-1.04.24-.87.32-.71.36-.57.4-.44.42-.33.42-.24.4-.16.36-.1.32-.05.24-.01h.16l.06.01h8.16v-.83H6.18l-.01-2.75-.02-.37.05-.34.11-.31.17-.28.25-.26.31-.23.38-.2.44-.18.51-.15.58-.12.64-.1.71-.06.77-.04.84-.02 1.27.05zm-6.3 1.98l-.23.33-.08.41.08.41.23.34.33.22.41.09.41-.09.33-.22.23-.34.08-.41-.08-.41-.23-.33-.33-.22-.41-.09-.41.09zm13.09 3.95l.28.06.32.12.35.18.36.27.36.35.35.47.32.59.28.73.21.88.14 1.04.05 1.23-.06 1.23-.16 1.04-.24.86-.32.71-.36.57-.4.45-.42.33-.42.24-.4.16-.36.09-.32.05-.24.02-.16-.01h-8.22v.82h5.84l.01 2.76.02.36-.05.34-.11.31-.17.29-.25.25-.31.24-.38.2-.44.17-.51.15-.58.13-.64.09-.71.07-.77.04-.84.01-1.27-.04-1.07-.14-.9-.2-.73-.25-.59-.3-.45-.33-.34-.34-.25-.34-.16-.33-.1-.3-.04-.25-.02-.2.01-.13v-5.34l.05-.64.13-.54.21-.46.26-.38.3-.32.33-.24.35-.2.35-.14.33-.1.3-.06.26-.04.21-.02.13-.01h5.84l.69-.05.59-.14.5-.21.41-.28.33-.32.27-.35.2-.36.15-.36.1-.35.07-.32.04-.28.02-.21V6.07h2.09l.14.01zm-6.47 14.25l-.23.33-.08.41.08.41.23.33.33.23.41.08.41-.08.33-.23.23-.33.08-.41-.08-.41-.23-.33-.33-.23-.41-.08-.41.08z"/>
    </symbol>

    <symbol id="c++" viewBox="0 0 24 24">
        <title>C++</title>
        <path d="M22.394 6c-.167-.29-.398-.543-.652-.69L12.926.22c-.509-.294-1.34-.294-1.848 0L2.26 5.31c-.508.293-.923 1.013-.923 1.6v10.18c0 .294.104.62.271.91.167.29.398.543.652.69l8.816 5.09c.508.293 1.34.293 1.848 0l8.816-5.09c.254-.147.485-.4.652-.69.167-.29.27-.616.27-.91V6.91c.003-.294-.1-.62-.268-.91zM12 19.11c-3.92 0-7.109-3.19-7.109-7.11 0-3.92 3.19-7.11 7.11-7.11a7.133 7.133 0 016.156 3.553l-3.076 1.78a3.567 3.567 0 00-3.08-1.78A3.56 3.56 0 008.444 12 3.56 3.56 0 0012 15.555a3.57 3.57 0 003.08-1.778l3.078 1.78A7.135 7.135 0 0112 19.11zm7.11-6.715h-.79v.79h-.79v-.79h-.79v-.79h.79v-.79h.79v.79h.79zm2.962 0h-.79v.79h-.79v-.79h-.79v-.79h.79v-.79h.79v.79h.79z"/>
    </symbol>

    <symbol id="css" viewBox="0 0 24 24">
        <title>css</title>
        <path d="M0 0v20.16A3.84 3.84 0 0 0 3.84 24h16.32A3.84 3.84 0 0 0 24 20.16V3.84A3.84 3.84 0 0 0 20.16 0Zm14.256 13.08c1.56 0 2.28 1.08 2.304 2.64h-1.608c.024-.288-.048-.6-.144-.84-.096-.192-.288-.264-.552-.264-.456 0-.696.264-.696.84-.024.576.288.888.768 1.08.72.288 1.608.744 1.92 1.296q.432.648.432 1.656c0 1.608-.912 2.592-2.496 2.592-1.656 0-2.4-1.032-2.424-2.688h1.68c0 .792.264 1.176.792 1.176.264 0 .456-.072.552-.24.192-.312.24-1.176-.048-1.512-.312-.408-.912-.6-1.32-.816q-.828-.396-1.224-.936c-.24-.36-.36-.888-.36-1.536 0-1.44.936-2.472 2.424-2.448m5.4 0c1.584 0 2.304 1.08 2.328 2.64h-1.608c0-.288-.048-.6-.168-.84-.096-.192-.264-.264-.528-.264-.48 0-.72.264-.72.84s.288.888.792 1.08c.696.288 1.608.744 1.92 1.296.264.432.408.984.408 1.656.024 1.608-.888 2.592-2.472 2.592-1.68 0-2.424-1.056-2.448-2.688h1.68c0 .744.264 1.176.792 1.176.264 0 .456-.072.552-.24.216-.312.264-1.176-.048-1.512-.288-.408-.888-.6-1.32-.816-.552-.264-.96-.576-1.2-.936s-.36-.888-.36-1.536c-.024-1.44.912-2.472 2.4-2.448m-11.031.018c.711-.006 1.419.198 1.839.63.432.432.672 1.128.648 1.992H9.336c.024-.456-.096-.792-.432-.96-.312-.144-.768-.048-.888.24-.12.264-.192.576-.168.864v3.504c0 .744.264 1.128.768 1.128a.65.65 0 0 0 .552-.264c.168-.24.192-.552.168-.84h1.776c.096 1.632-.984 2.712-2.568 2.688-1.536 0-2.496-.864-2.472-2.472v-4.032c0-.816.24-1.44.696-1.848.432-.408 1.146-.624 1.857-.63"/>
    </symbol>

    <symbol id="arduino" viewBox="0 0 24 24">
        <title>Arduino</title>
        <path d="M18.087 6.146c-.3 0-.607.017-.907.069-2.532.367-4.23 2.239-5.18 3.674-.95-1.435-2.648-3.307-5.18-3.674a6.49 6.49 0 0 0-.907-.069C2.648 6.146 0 8.77 0 12s2.656 5.854 5.913 5.854c.3 0 .607-.017.916-.069 2.531-.376 4.23-2.247 5.18-3.683.949 1.436 2.647 3.307 5.18 3.683.299.043.607.069.915.069C21.344 17.854 24 15.23 24 12s-2.656-5.854-5.913-5.854zM6.53 15.734a3.837 3.837 0 0 1-.625.043c-2.148 0-3.889-1.7-3.889-3.777 0-2.085 1.749-3.777 3.898-3.777.208 0 .416.017.624.043 2.39.35 3.847 2.768 4.347 3.734-.508.974-1.974 3.384-4.355 3.734zm11.558.043c-.208 0-.416-.017-.624-.043-2.39-.35-3.856-2.768-4.347-3.734.491-.966 1.957-3.384 4.347-3.734.208-.026.416-.043.624-.043 2.149 0 3.89 1.7 3.89 3.777 0 2.085-1.75 3.777-3.89 3.777zm1.65-4.404v1.134h-1.205v1.182h-1.156v-1.182H16.17v-1.134h1.206V10.19h1.156v1.183h1.206zM4.246 12.498H7.82v-1.125H4.245v1.125z"/>
    </symbol>

    <symbol id="github" viewBox="0 0 24 24">
        <title>GitHub</title>
        <path d="M12 .297c-6.63 0-12 5.373-12 12 0 5.303 3.438 9.8 8.205 11.385.6.113.82-.258.82-.577 0-.285-.01-1.04-.015-2.04-3.338.724-4.042-1.61-4.042-1.61C4.422 18.07 3.633 17.7 3.633 17.7c-1.087-.744.084-.729.084-.729 1.205.084 1.838 1.236 1.838 1.236 1.07 1.835 2.809 1.305 3.495.998.108-.776.417-1.305.76-1.605-2.665-.3-5.466-1.332-5.466-5.93 0-1.31.465-2.38 1.235-3.22-.135-.303-.54-1.523.105-3.176 0 0 1.005-.322 3.3 1.23.96-.267 1.98-.399 3-.405 1.02.006 2.04.138 3 .405 2.28-1.552 3.285-1.23 3.285-1.23.645 1.653.24 2.873.12 3.176.765.84 1.23 1.91 1.23 3.22 0 4.61-2.805 5.625-5.475 5.92.42.36.81 1.096.81 2.22 0 1.606-.015 2.896-.015 3.286 0 .315.21.69.825.57C20.565 22.092 24 17.592 24 12.297c0-6.627-5.373-12-12-12"/>
    </symbol>

    <symbol id="linux" viewBox="0 0 24 24">
        <title>linux</title>
        <path d="M12.504 0c-.155 0-.315.008-.48.021-4.226.333-3.105 4.807-3.17 6.298-.076 1.092-.3 1.953-1.05 3.02-.885 1.051-2.127 2.75-2.716 4.521-.278.832-.41 1.684-.287 2.489a.424.424 0 00-.11.135c-.26.268-.45.6-.663.839-.199.199-.485.267-.797.4-.313.136-.658.269-.864.68-.09.189-.136.394-.132.602 0 .199.027.4.055.536.058.399.116.728.04.97-.249.68-.28 1.145-.106 1.484.174.334.535.47.94.601.81.2 1.91.135 2.774.6.926.466 1.866.67 2.616.47.526-.116.97-.464 1.208-.946.587-.003 1.23-.269 2.26-.334.699-.058 1.574.267 2.577.2.025.134.063.198.114.333l.003.003c.391.778 1.113 1.132 1.884 1.071.771-.06 1.592-.536 2.257-1.306.631-.765 1.683-1.084 2.378-1.503.348-.199.629-.469.649-.853.023-.4-.2-.811-.714-1.376v-.097l-.003-.003c-.17-.2-.25-.535-.338-.926-.085-.401-.182-.786-.492-1.046h-.003c-.059-.054-.123-.067-.188-.135a.357.357 0 00-.19-.064c.431-1.278.264-2.55-.173-3.694-.533-1.41-1.465-2.638-2.175-3.483-.796-1.005-1.576-1.957-1.56-3.368.026-2.152.236-6.133-3.544-6.139zm.529 3.405h.013c.213 0 .396.062.584.198.19.135.33.332.438.533.105.259.158.459.166.724 0-.02.006-.04.006-.06v.105a.086.086 0 01-.004-.021l-.004-.024a1.807 1.807 0 01-.15.706.953.953 0 01-.213.335.71.71 0 00-.088-.042c-.104-.045-.198-.064-.284-.133a1.312 1.312 0 00-.22-.066c.05-.06.146-.133.183-.198.053-.128.082-.264.088-.402v-.02a1.21 1.21 0 00-.061-.4c-.045-.134-.101-.2-.183-.333-.084-.066-.167-.132-.267-.132h-.016c-.093 0-.176.03-.262.132a.8.8 0 00-.205.334 1.18 1.18 0 00-.09.4v.019c.002.089.008.179.02.267-.193-.067-.438-.135-.607-.202a1.635 1.635 0 01-.018-.2v-.02a1.772 1.772 0 01.15-.768c.082-.22.232-.406.43-.533a.985.985 0 01.594-.2zm-2.962.059h.036c.142 0 .27.048.399.135.146.129.264.288.344.465.09.199.14.4.153.667v.004c.007.134.006.2-.002.266v.08c-.03.007-.056.018-.083.024-.152.055-.274.135-.393.2.012-.09.013-.18.003-.267v-.015c-.012-.133-.04-.2-.082-.333a.613.613 0 00-.166-.267.248.248 0 00-.183-.064h-.021c-.071.006-.13.04-.186.132a.552.552 0 00-.12.27.944.944 0 00-.023.33v.015c.012.135.037.2.08.334.046.134.098.2.166.268.01.009.02.018.034.024-.07.057-.117.07-.176.136a.304.304 0 01-.131.068 2.62 2.62 0 01-.275-.402 1.772 1.772 0 01-.155-.667 1.759 1.759 0 01.08-.668 1.43 1.43 0 01.283-.535c.128-.133.26-.2.418-.2zm1.37 1.706c.332 0 .733.065 1.216.399.293.2.523.269 1.052.468h.003c.255.136.405.266.478.399v-.131a.571.571 0 01.016.47c-.123.31-.516.643-1.063.842v.002c-.268.135-.501.333-.775.465-.276.135-.588.292-1.012.267a1.139 1.139 0 01-.448-.067 3.566 3.566 0 01-.322-.198c-.195-.135-.363-.332-.612-.465v-.005h-.005c-.4-.246-.616-.512-.686-.71-.07-.268-.005-.47.193-.6.224-.135.38-.271.483-.336.104-.074.143-.102.176-.131h.002v-.003c.169-.202.436-.47.839-.601.139-.036.294-.065.466-.065zm2.8 2.142c.358 1.417 1.196 3.475 1.735 4.473.286.534.855 1.659 1.102 3.024.156-.005.33.018.513.064.646-1.671-.546-3.467-1.089-3.966-.22-.2-.232-.335-.123-.335.59.534 1.365 1.572 1.646 2.757.13.535.16 1.104.021 1.67.067.028.135.06.205.067 1.032.534 1.413.938 1.23 1.537v-.043c-.06-.003-.12 0-.18 0h-.016c.151-.467-.182-.825-1.065-1.224-.915-.4-1.646-.336-1.77.465-.008.043-.013.066-.018.135-.068.023-.139.053-.209.064-.43.268-.662.669-.793 1.187-.13.533-.17 1.156-.205 1.869v.003c-.02.334-.17.838-.319 1.35-1.5 1.072-3.58 1.538-5.348.334a2.645 2.645 0 00-.402-.533 1.45 1.45 0 00-.275-.333c.182 0 .338-.03.465-.067a.615.615 0 00.314-.334c.108-.267 0-.697-.345-1.163-.345-.467-.931-.995-1.788-1.521-.63-.4-.986-.87-1.15-1.396-.165-.534-.143-1.085-.015-1.645.245-1.07.873-2.11 1.274-2.763.107-.065.037.135-.408.974-.396.751-1.14 2.497-.122 3.854a8.123 8.123 0 01.647-2.876c.564-1.278 1.743-3.504 1.836-5.268.048.036.217.135.289.202.218.133.38.333.59.465.21.201.477.335.876.335.039.003.075.006.11.006.412 0 .73-.134.997-.268.29-.134.52-.334.74-.4h.005c.467-.135.835-.402 1.044-.7zm2.185 8.958c.037.6.343 1.245.882 1.377.588.134 1.434-.333 1.791-.765l.211-.01c.315-.007.577.01.847.268l.003.003c.208.199.305.53.391.876.085.4.154.78.409 1.066.486.527.645.906.636 1.14l.003-.007v.018l-.003-.012c-.015.262-.185.396-.498.595-.63.401-1.746.712-2.457 1.57-.618.737-1.37 1.14-2.036 1.191-.664.053-1.237-.2-1.574-.898l-.005-.003c-.21-.4-.12-1.025.056-1.69.176-.668.428-1.344.463-1.897.037-.714.076-1.335.195-1.814.12-.465.308-.797.641-.984l.045-.022zm-10.814.049h.01c.053 0 .105.005.157.014.376.055.706.333 1.023.752l.91 1.664.003.003c.243.533.754 1.064 1.189 1.637.434.598.77 1.131.729 1.57v.006c-.057.744-.48 1.148-1.125 1.294-.645.135-1.52.002-2.395-.464-.968-.536-2.118-.469-2.857-.602-.369-.066-.61-.2-.723-.4-.11-.2-.113-.602.123-1.23v-.004l.002-.003c.117-.334.03-.752-.027-1.118-.055-.401-.083-.71.043-.94.16-.334.396-.4.69-.533.294-.135.64-.202.915-.47h.002v-.002c.256-.268.445-.601.668-.838.19-.201.38-.336.663-.336zm7.159-9.074c-.435.201-.945.535-1.488.535-.542 0-.97-.267-1.28-.466-.154-.134-.28-.268-.373-.335-.164-.134-.144-.333-.074-.333.109.016.129.134.199.2.096.066.215.2.36.333.292.2.68.467 1.167.467.485 0 1.053-.267 1.398-.466.195-.135.445-.334.648-.467.156-.136.149-.267.279-.267.128.016.034.134-.147.332a8.097 8.097 0 01-.69.468zm-1.082-1.583V5.64c-.006-.02.013-.042.029-.05.074-.043.18-.027.26.004.063 0 .16.067.15.135-.006.049-.085.066-.135.066-.055 0-.092-.043-.141-.068-.052-.018-.146-.008-.163-.065zm-.551 0c-.02.058-.113.049-.166.066-.047.025-.086.068-.14.068-.05 0-.13-.02-.136-.068-.01-.066.088-.133.15-.133.08-.031.184-.047.259-.005.019.009.036.03.03.05v.02h.003z"/>
    </symbol>

    <symbol id="pterodactyl" viewBox="0 0 24 24">
        <title>Pterodactyl</title>
        <path d="M15.236 3.775a8.404 8.404 0 0 0-.535.004c-.576 0-1.573.103-2.201.234-1.834.367-4.348 1.65-5.5 2.855-1.362 1.415-1.362 1.755 0 .917 1.074-.708 4.663-2.227 5.187-2.227.157 0 .287.106.287.264 0 .13.524-.132 1.153-.604.628-.445 1.363-.969 1.625-1.152.334-.197.372-.275-.016-.291zm1.262 2.449c-.475.01-.894.041-1.143.094-1.676.34-3.457 1.388-5.29 3.117-.97.917-1.782 1.571-1.782 1.414 0-.157.104-.367.262-.445.419-.262 2.698-3.56 2.54-3.692-.209-.236-3.902 1.57-5.605 2.723-1.99 1.362-4.19 3.746-4.95 5.422-.34.707-.575 1.336-.523 1.389.053.026.89-.525 1.86-1.258.969-.734 1.833-1.257 1.912-1.178.078.079-.42.732-1.127 1.44-.707.733-1.206 1.31-1.127 1.31.078 0 1.152-.42 2.357-.943l2.174-.916.395.601c1.283 1.991 3.325 2.882 6.547 2.803 1.729-.026 2.096.028 2.986.656.55.367 1.153.68 1.336.68.184 0 .393.183.498.393.079.21.418.394.733.394.524-.026.55-.053.158-.289-.262-.13-.473-.394-.473-.55 0-.158.21-.444.473-.628.419-.314.419-.34 0-.367-.236 0-.525.105-.604.262-.288.471-1.1.261-1.545-.367-.393-.629-.393-.655.577-.97l.968-.314-1.832-.89c-.995-.472-2.044-.865-2.306-.865-.42 0-.47-.13-.313-.864.603-2.829 3.325-4.794 8.46-6.103C23.133 8.02 24 7.733 24 7.628c0-.288-4.166-1.23-6.026-1.361a14.798 14.798 0 0 0-1.476-.043Zm-12.354 5.36c.157 0 .159.156-.05.392-.184.236-.394.341-.446.29-.183-.184.182-.683.496-.683zm13.07 6.023a.535.535 0 0 0-.417.264c-.079.13-.054.261.103.261.131 0 .342-.13.42-.261.079-.157.052-.264-.105-.264zm-2.827.787c-.577 0-.628.052-.34.393.183.21.628.392.968.392.577 0 .628-.052.34-.392-.183-.21-.628-.393-.968-.393z"/>
    </symbol>

    <symbol id="bash" viewBox="0 0 24 24">
        <title>Bash</title>
        <path d="M21.038,4.9l-7.577-4.498C13.009,0.134,12.505,0,12,0c-0.505,0-1.009,0.134-1.462,0.403L2.961,4.9 C2.057,5.437,1.5,6.429,1.5,7.503v8.995c0,1.073,0.557,2.066,1.462,2.603l7.577,4.497C10.991,23.866,11.495,24,12,24 c0.505,0,1.009-0.134,1.461-0.402l7.577-4.497c0.904-0.537,1.462-1.529,1.462-2.603V7.503C22.5,6.429,21.943,5.437,21.038,4.9z M15.17,18.946l0.013,0.646c0.001,0.078-0.05,0.167-0.111,0.198l-0.383,0.22c-0.061,0.031-0.111-0.007-0.112-0.085L14.57,19.29 c-0.328,0.136-0.66,0.169-0.872,0.084c-0.04-0.016-0.057-0.075-0.041-0.142l0.139-0.584c0.011-0.046,0.036-0.092,0.069-0.121 c0.012-0.011,0.024-0.02,0.036-0.026c0.022-0.011,0.043-0.014,0.062-0.006c0.229,0.077,0.521,0.041,0.802-0.101 c0.357-0.181,0.596-0.545,0.592-0.907c-0.003-0.328-0.181-0.465-0.613-0.468c-0.55,0.001-1.064-0.107-1.072-0.917 c-0.007-0.667,0.34-1.361,0.889-1.8l-0.007-0.652c-0.001-0.08,0.048-0.168,0.111-0.2l0.37-0.236 c0.061-0.031,0.111,0.007,0.112,0.087l0.006,0.653c0.273-0.109,0.511-0.138,0.726-0.088c0.047,0.012,0.067,0.076,0.048,0.151 l-0.144,0.578c-0.011,0.044-0.036,0.088-0.065,0.116c-0.012,0.012-0.025,0.021-0.038,0.028c-0.019,0.01-0.038,0.013-0.057,0.009 c-0.098-0.022-0.332-0.073-0.699,0.113c-0.385,0.195-0.52,0.53-0.517,0.778c0.003,0.297,0.155,0.387,0.681,0.396 c0.7,0.012,1.003,0.318,1.01,1.023C16.105,17.747,15.736,18.491,15.17,18.946z M19.143,17.859c0,0.06-0.008,0.116-0.058,0.145 l-1.916,1.164c-0.05,0.029-0.09,0.004-0.09-0.056v-0.494c0-0.06,0.037-0.093,0.087-0.122l1.887-1.129 c0.05-0.029,0.09-0.004,0.09,0.056V17.859z M20.459,6.797l-7.168,4.427c-0.894,0.523-1.553,1.109-1.553,2.187v8.833 c0,0.645,0.26,1.063,0.66,1.184c-0.131,0.023-0.264,0.039-0.398,0.039c-0.42,0-0.833-0.114-1.197-0.33L3.226,18.64 c-0.741-0.44-1.201-1.261-1.201-2.142V7.503c0-0.881,0.46-1.702,1.201-2.142l7.577-4.498c0.363-0.216,0.777-0.33,1.197-0.33 c0.419,0,0.833,0.114,1.197,0.33l7.577,4.498c0.624,0.371,1.046,1.013,1.164,1.732C21.686,6.557,21.12,6.411,20.459,6.797z"/>
    </symbol>

    <symbol id="rpi" viewBox="0 0 24 24">
        <title>Raspberry Pi</title>
        <path d="m19.8955 10.8961-.1726-.3028c.0068-2.1746-1.0022-3.061-2.1788-3.7348.356-.0938.7237-.1711.8245-.6182.6118-.1566.7397-.4398.8011-.7398.16-.1066.6955-.4061.6394-.9211.2998-.2069.4669-.4725.3819-.8487.3222-.3515.407-.6419.2702-.9096.3868-.4805.2152-.7295.05-.9817.2897-.5254.0341-1.0887-.7758-.9944-.3221-.4733-1.0244-.3659-1.133-.3637-.1215-.1519-.2819-.2821-.7755-.219-.3197-.2851-.6771-.2364-1.0458-.0964-.4378-.3403-.7275-.0675-1.0584.0356-.53-.1706-.6513.0631-.9117.1583-.5781-.1203-.7538.1416-1.0309.4182l-.3224-.0063c-.8719.5061-1.305 1.5366-1.4585 2.0664-.1536-.5299-.5858-1.5604-1.4575-2.0664l-.3223.0063C9.942.5014 9.7663.2394 9.1883.3597 8.9279.2646 8.807.0309 8.2766.2015c-.2172-.0677-.417-.2084-.6522-.2012l.0004.0002C7.5017.0041 7.369.049 7.2185.166c-.3688-.1401-.7262-.1887-1.0459.0964-.4936-.0631-.654.0671-.7756.219C5.2887.4791 4.5862.3717 4.264.845c-.8096-.0943-1.0655.4691-.7756.9944-.1653.2521-.3366.5013.05.9819-.1367.2677-.0519.5581.2703.9096-.085.3763.0822.6418.3819.8487-.0561.515.4795.8144.6394.9211.0614.3001.1894.5832.8011.7398.1008.4472.4685.5244.8245.6183-1.1766.6737-2.1856 1.56-2.1788 3.7348l-.1724.3028c-1.3491.8082-2.5629 3.4056-.6648 5.5167.124.6609.3319 1.1355.5171 1.6609.2769 2.117 2.0841 3.1082 2.5608 3.2255.6984.524 1.4423 1.0212 2.449 1.3696.949.964 1.977 1.3314 3.0107 1.3308.0152 0 .0306.0002.0457 0 1.0337.0006 2.0618-.3668 3.0107-1.3308 1.0067-.3483 1.7506-.8456 2.4491-1.3696.4766-.1173 2.2838-1.1085 2.5607-3.2255.1851-.5253.3931-1 .517-1.6609 1.8981-2.1113.6843-4.7089-.6649-5.517zm-1.0386-.3715c-.0704.8759-4.6354-3.0504-3.8472-3.1808 2.1391-.3558 3.9191.896 3.8472 3.1808zm-2.0155 4.3649c-1.1481.7409-2.8025.2626-3.6953-1.0681-.8928-1.3306-.6858-3.0101.4623-3.7509 1.1481-.7409 2.8025-.2627 3.6953 1.068.8927 1.3307.6858 3.0101-.4623 3.751zM13.6591 1.3721c.0396.1967.0843.321.1354.3577.2537-.272.4611-.5506.7878-.8123.0011.1537-.0776.3205.1169.4425.1752-.2356.4119-.4459.7263-.6244-.1514.2611-.026.3404.0554.4486.24-.2059.4681-.4144.9109-.5759-.121.1474-.2902.2914-.1108.4607.2473-.1544.496-.3086 1.0833-.4183-.1323.1475-.4059.295-.2401.4426.3104-.1186.6539-.2047 1.034-.2546-.182.1496-.3337.2963-.1846.4122.3323-.1022.7899-.2398 1.2372-.1212l-.2832.2849c-.0314.0382.6623.0297 1.1202.0364-.167.2321-.3375.4562-.437.8548.0454.0459.2723.0204.4862 0-.2194.4618-.6004.5783-.6893.776.134.1015.32.075.5232.006-.158.3254-.4892.5484-.7509.8123.0662.047.1818.075.4555.0425-.2418.257-.5339.492-.8802.7032.0614.0708.2722.0681.4678.0727-.3136.3069-.7173.466-1.0955.6668.1885.1288.3234.0988.4678.097-.2676.2198-.7225.3342-1.1448.4668.0803.1249.1607.1589.3324.194-.447.2473-1.0873.1343-1.2679.2607.0435.1243.1665.2053.3139.2728-.7197.0418-2.6879-.0262-3.0652-1.5156.7367-.8094 2.0813-1.7593 4.394-2.934-1.7994.6022-3.4229 1.405-4.7817 2.5096-1.5978-.7436-.4965-2.6197.283-3.3645zm-1.6126 5.3718c1.1329-.0123 2.5356.8325 2.53 1.6286-.005.7027-.9851 1.2715-2.5213 1.2607-1.5043-.0177-2.5172-.7148-2.5137-1.3957.003-.5603 1.2282-1.5263 2.505-1.4936zm-5.7646-.6006c.1717-.0351.252-.0692.3323-.194-.4223-.1327-.8772-.247-1.1448-.4668.1444.0018.2792.0318.4678-.097-.3783-.2008-.782-.3599-1.0956-.6668.1955-.0048.4064-.002.4677-.0728-.3462-.2113-.6383-.4463-.8801-.7033.2738.0325.3893.0045.4555-.0425-.2617-.264-.593-.487-.7509-.8123.2032.069.3892.0954.5232-.006-.089-.1977-.47-.3142-.6894-.776.214.0204.4409.0459.4863 0-.0994-.3985-.2698-.6226-.4369-.8547.4579-.0067 1.1516.0018 1.1202-.0364l-.2831-.2849c.4472-.1186.9049.019 1.2371.1213.1492-.1159-.0026-.2626-.1847-.4123.3801.05.7236.1361 1.034.2547.1659-.1476-.1076-.2951-.24-.4426.5872.1097.8361.2639 1.0833.4183.1794-.1694.0103-.3133-.1108-.4607.4428.1615.6709.37.911.5759.0814-.1082.2068-.1875.0554-.4486.3143.1785.5511.3888.7263.6244.1945-.122.1159-.2888.1169-.4426.3267.2618.534.5404.7879.8124.0511-.0366.0959-.161.1354-.3577.7794.7448 1.8807 2.6208.2831 3.3646-1.3589-1.1039-2.9817-1.9064-4.78-2.5086 2.3115 1.174 3.6556 2.1239 4.392 2.9328-.3773 1.4895-2.3455 1.5575-3.0651 1.5157.1473-.0676.2703-.1485.3139-.2728-.1806-.1264-.8209-.0134-1.2679-.2607zm2.8175 1.1334c.7881.1304-3.7769 4.0567-3.8472 3.1809-.0719-2.2846 1.7079-3.5367 3.8472-3.1809zm-4.847 8.7567c-1.1094-.8789-1.4668-3.4529.5901-4.6097 1.2394-.3273.4184 5.051-.5901 4.6097zm4.2656 4.5989c-.6257.3719-2.1452.2187-3.2252-1.3095-.7283-1.2823-.6345-2.5872-.123-2.9705.7648-.4589 1.9464.1609 2.8559 1.2003.7923.9405 1.1536 2.5927.4923 3.0797zm-1.2415-5.6086c-1.1481-.7409-1.3551-2.4203-.4623-3.7511.8928-1.3307 2.5472-1.8089 3.6952-1.068 1.1481.7409 1.3551 2.4203.4623 3.7509-.8926 1.3308-2.5471 1.809-3.6952 1.0682zm4.7948 8.2279c-1.3763.0584-2.7258-1.1105-2.7081-1.5157-.0206-.594 1.6758-1.0578 2.782-1.0306 1.1131-.0479 2.6068.3531 2.6097.8851.0184.5166-1.3547 1.6838-2.6836 1.6612zm2.7584-5.8578c.0081 1.3899-1.226 2.5225-2.7562 2.5299-1.5302.0073-2.7773-1.1135-2.7854-2.5033v-.0265c-.008-1.3899 1.2259-2.5226 2.7562-2.5299 1.5302-.0073 2.7773 1.1134 2.7853 2.5033a.7794.7794 0 0 1 .0001.0265zm3.855 2.0029c-1.186 1.6208-2.7916 1.684-3.3896 1.2325-.6255-.5811-.148-2.3854.7094-3.3747v-.0003c.9812-1.0912 2.0302-1.8037 2.7609-1.2469.4919.4828.7805 2.3008-.0807 3.3894zm1.0724-3.4301c-1.0086.4413-1.8298-4.9372-.5901-4.61 2.0568 1.1569 1.6994 3.731.5901 4.61zm-.0256-8.3279h.2985v-.5304h.2986c.1502 0 .2053.0624.2262.2052.0152.1088.0113.2395.0477.3253h.2984c-.0533-.0763-.0515-.2358-.0571-.3213-.0097-.1373-.0513-.2796-.1977-.3176v-.0037c.1502-.061.2149-.1807.2149-.341 0-.2048-.1539-.3738-.3974-.3738h-.732v1.3573zm.2985-1.1255h.3269c.1333 0 .2054.0573.2054.188 0 .1369-.0721.1942-.2054.1942H20.03v-.3822zm-1.0337.4633c0 .7009.5682 1.2694 1.2695 1.2694s1.2695-.5684 1.2695-1.2694c0-.7013-.5683-1.2697-1.2695-1.2697-.7013 0-1.2695.5684-1.2695 1.2697zm2.3275 0c0 .5845-.4737 1.058-1.058 1.058s-1.058-.4735-1.058-1.058c0-.5849.4737-1.058 1.058-1.058s1.058.4731 1.058 1.058z"/>
    </symbol>

    <symbol id="blender" viewBox="0 0 24 24">
        <title>Blender</title>
        <path d="M12.51 13.214c.046-.8.438-1.506 1.03-2.006a3.424 3.424 0 0 1 2.212-.79c.85 0 1.631.3 2.211.79.592.5.983 1.206 1.028 2.005.045.823-.285 1.586-.865 2.153a3.389 3.389 0 0 1-2.374.938 3.393 3.393 0 0 1-2.376-.938c-.58-.567-.91-1.33-.865-2.152M7.35 14.831c.006.314.106.922.256 1.398a7.372 7.372 0 0 0 1.593 2.757 8.227 8.227 0 0 0 2.787 2.001 8.947 8.947 0 0 0 3.66.76 8.964 8.964 0 0 0 3.657-.772 8.285 8.285 0 0 0 2.785-2.01 7.428 7.428 0 0 0 1.592-2.762 6.964 6.964 0 0 0 .25-3.074 7.123 7.123 0 0 0-1.016-2.779 7.764 7.764 0 0 0-1.852-2.043h.002L13.566 2.55l-.02-.015c-.492-.378-1.319-.376-1.86.002-.547.382-.609 1.015-.123 1.415l-.001.001 3.126 2.543-9.53.01h-.013c-.788.001-1.545.518-1.695 1.172-.154.665.38 1.217 1.2 1.22V8.9l4.83-.01-8.62 6.617-.034.025c-.813.622-1.075 1.658-.563 2.313.52.667 1.625.668 2.447.004L7.414 14s-.069.52-.063.831zm12.09 1.741c-.97.988-2.326 1.548-3.795 1.55-1.47.004-2.827-.552-3.797-1.538a4.51 4.51 0 0 1-1.036-1.622 4.282 4.282 0 0 1 .282-3.519 4.702 4.702 0 0 1 1.153-1.371c.942-.768 2.141-1.183 3.396-1.185 1.256-.002 2.455.41 3.398 1.175.48.391.87.854 1.152 1.367a4.28 4.28 0 0 1 .522 1.706 4.236 4.236 0 0 1-.239 1.811 4.54 4.54 0 0 1-1.035 1.626"/>
    </symbol>

    <symbol id="cpu" viewBox="0 0 24 24">
        <title>Cpu</title>
        <path d="M5 0a.5.5 0 0 1 .5.5V2h1V.5a.5.5 0 0 1 1 0V2h1V.5a.5.5 0 0 1 1 0V2h1V.5a.5.5 0 0 1 1 0V2A2.5 2.5 0 0 1 14 4.5h1.5a.5.5 0 0 1 0 1H14v1h1.5a.5.5 0 0 1 0 1H14v1h1.5a.5.5 0 0 1 0 1H14v1h1.5a.5.5 0 0 1 0 1H14a2.5 2.5 0 0 1-2.5 2.5v1.5a.5.5 0 0 1-1 0V14h-1v1.5a.5.5 0 0 1-1 0V14h-1v1.5a.5.5 0 0 1-1 0V14h-1v1.5a.5.5 0 0 1-1 0V14A2.5 2.5 0 0 1 2 11.5H.5a.5.5 0 0 1 0-1H2v-1H.5a.5.5 0 0 1 0-1H2v-1H.5a.5.5 0 0 1 0-1H2v-1H.5a.5.5 0 0 1 0-1H2A2.5 2.5 0 0 1 4.5 2V.5A.5.5 0 0 1 5 0m-.5 3A1.5 1.5 0 0 0 3 4.5v7A1.5 1.5 0 0 0 4.5 13h7a1.5 1.5 0 0 0 1.5-1.5v-7A1.5 1.5 0 0 0 11.5 3zM5 6.5A1.5 1.5 0 0 1 6.5 5h3A1.5 1.5 0 0 1 11 6.5v3A1.5 1.5 0 0 1 9.5 11h-3A1.5 1.5 0 0 1 5 9.5zM6.5 6a.5.5 0 0 0-.5.5v3a.5.5 0 0 0 .5.5h3a.5.5 0 0 0 .5-.5v-3a.5.5 0 0 0-.5-.5z"/>
    </symbol>

    <symbol id="gpu" viewBox="0 0 24 24">
        <title>Gpu</title>
    <path d="M4 8a1.5 1.5 0 1 1 3 0 1.5 1.5 0 0 1-3 0m7.5-1.5a1.5 1.5 0 1 0 0 3 1.5 1.5 0 0 0 0-3"/>
    <path d="M0 1.5A.5.5 0 0 1 .5 1h1a.5.5 0 0 1 .5.5V4h13.5a.5.5 0 0 1 .5.5v7a.5.5 0 0 1-.5.5H2v2.5a.5.5 0 0 1-1 0V2H.5a.5.5 0 0 1-.5-.5m5.5 4a2.5 2.5 0 1 0 0 5 2.5 2.5 0 0 0 0-5M9 8a2.5 2.5 0 1 0 5 0 2.5 2.5 0 0 0-5 0"/>
    <path d="M3 12.5h3.5v1a.5.5 0 0 1-.5.5H3.5a.5.5 0 0 1-.5-.5zm4 1v-1h4v1a.5.5 0 0 1-.5.5h-3a.5.5 0 0 1-.5-.5"/>
    </symbol>

    <symbol id="ram" viewBox="0 0 24 24">
        <title>Ram</title>
        <path d="M1 3a1 1 0 0 0-1 1v8a1 1 0 0 0 1 1h4.586a1 1 0 0 0 .707-.293l.353-.353a.5.5 0 0 1 .708 0l.353.353a1 1 0 0 0 .707.293H15a1 1 0 0 0 1-1V4a1 1 0 0 0-1-1zm.5 1h3a.5.5 0 0 1 .5.5v4a.5.5 0 0 1-.5.5h-3a.5.5 0 0 1-.5-.5v-4a.5.5 0 0 1 .5-.5m5 0h3a.5.5 0 0 1 .5.5v4a.5.5 0 0 1-.5.5h-3a.5.5 0 0 1-.5-.5v-4a.5.5 0 0 1 .5-.5m4.5.5a.5.5 0 0 1 .5-.5h3a.5.5 0 0 1 .5.5v4a.5.5 0 0 1-.5.5h-3a.5.5 0 0 1-.5-.5zM2 10v2H1v-2zm2 0v2H3v-2zm2 0v2H5v-2zm3 0v2H8v-2zm2 0v2h-1v-2zm2 0v2h-1v-2zm2 0v2h-1v-2z"/>
    </symbol>

    <symbol id="ssd" viewBox="0 0 24 24">
        <title>Ssd</title>
        <path d="M1.5 4.5A.5.5 0 0 1 2 4h13.5a.5.5 0 0 1 .5.5V7a.5.5 0 0 1-.5.5.5.5 0 0 0 0 1 .5.5 0 0 1 .5.5v2.5a.5.5 0 0 1-.5.5H2a.5.5 0 0 1-.5-.5h-1A.5.5 0 0 1 0 11V7.5A.5.5 0 0 1 .5 7h1a.25.25 0 0 0 0-.5h-1A.5.5 0 0 1 0 6V5a.5.5 0 0 1 .5-.5zm1 .5a.5.5 0 0 1-.5.5h-.5a1.25 1.25 0 1 1 0 2.5H1v2.5h1a.5.5 0 0 1 .5.5H15V9.415a1.5 1.5 0 0 1 0-2.83V5z"/>
        <path d="M4 6.5a.5.5 0 0 1 .5-.5h2a.5.5 0 0 1 .5.5v3a.5.5 0 0 1-.5.5h-2a.5.5 0 0 1-.5-.5zM5 7v2h1V7zm3-.5a.5.5 0 0 1 .5-.5h4a.5.5 0 0 1 .5.5v3a.5.5 0 0 1-.5.5h-4a.5.5 0 0 1-.5-.5zM9 7v2h3V7z"/>
    </symbol>

    <symbol id="hdd" viewBox="0 0 24 24">
        <title>Hdd</title>
        <path d="M12 2.5a.5.5 0 1 1-1 0 .5.5 0 0 1 1 0m0 11a.5.5 0 1 1-1 0 .5.5 0 0 1 1 0m-7.5.5a.5.5 0 1 0 0-1 .5.5 0 0 0 0 1M5 2.5a.5.5 0 1 1-1 0 .5.5 0 0 1 1 0M8 8a1 1 0 1 0 0-2 1 1 0 0 0 0 2"/>
        <path d="M12 7a4 4 0 0 1-3.937 4c-.537.813-1.02 1.515-1.181 1.677a1.102 1.102 0 0 1-1.56-1.559c.1-.098.396-.314.795-.588A4 4 0 0 1 8 3a4 4 0 0 1 4 4m-1 0a3 3 0 1 0-3.891 2.865c.667-.44 1.396-.91 1.955-1.268.224-.144.483.115.34.34l-.62.96A3 3 0 0 0 11 7"/>
        <path d="M2 2a2 2 0 0 1 2-2h8a2 2 0 0 1 2 2v12a2 2 0 0 1-2 2H4a2 2 0 0 1-2-2zm2-1a1 1 0 0 0-1 1v12a1 1 0 0 0 1 1h8a1 1 0 0 0 1-1V2a1 1 0 0 0-1-1z"/>
    </symbol>

    <symbol id="rpii" viewBox="0 0 24 24">
        <title>rpii</title>
        <path d="M1.5 0A1.5 1.5 0 0 0 0 1.5v7A1.5 1.5 0 0 0 1.5 10H6v1H1a1 1 0 0 0-1 1v3a1 1 0 0 0 1 1h14a1 1 0 0 0 1-1v-3a1 1 0 0 0-1-1h-5v-1h4.5A1.5 1.5 0 0 0 16 8.5v-7A1.5 1.5 0 0 0 14.5 0zm0 1h13a.5.5 0 0 1 .5.5v7a.5.5 0 0 1-.5.5h-13a.5.5 0 0 1-.5-.5v-7a.5.5 0 0 1 .5-.5M12 12.5a.5.5 0 1 1 1 0 .5.5 0 0 1-1 0m2 0a.5.5 0 1 1 1 0 .5.5 0 0 1-1 0M1.5 12h5a.5.5 0 0 1 0 1h-5a.5.5 0 0 1 0-1M1 14.25a.25.25 0 0 1 .25-.25h5.5a.25.25 0 1 1 0 .5h-5.5a.25.25 0 0 1-.25-.25"/>
    </symbol>

</svg>
